<svg width="24" height="24" viewBox="0 0 24 24" fill="none" xmlns="http://www.w3.org/2000/svg">
<path fill-rule="evenodd" clip-rule="evenodd" d="M16.7939 1.75C16.7939 1.33579 16.4582 1 16.0439 1C15.6297 1 15.2939 1.33579 15.2939 1.75V2.57922H8.71582V1.75C8.71582 1.33579 8.38003 1 7.96582 1C7.55161 1 7.21582 1.33579 7.21582 1.75V2.59779C5.84511 2.69121 4.65172 3.13894 3.76749 3.97949C2.76004 4.93718 2.25 6.31342 2.25 7.97225V17.0219C2.25 18.7008 2.75774 20.0963 3.76225 21.0699C4.76302 22.0399 6.16301 22.5 7.77096 22.5H16.229C17.8377 22.5 19.2366 22.0492 20.2371 21.0939C21.243 20.1335 21.75 18.7552 21.75 17.0975V7.97329C21.7548 6.31561 21.2504 4.93879 20.2448 3.98022C19.3619 3.13858 18.1678 2.69099 16.7939 2.59773V1.75ZM15.2939 4.07922V5.04078C15.2939 5.45499 15.6297 5.79078 16.0439 5.79078C16.4582 5.79078 16.7939 5.45499 16.7939 5.04078V4.10182C17.8535 4.1908 18.6561 4.5381 19.2098 5.06594C19.8507 5.67686 20.2541 6.62109 20.25 7.96994L20.25 7.97225V8.4043H3.75V7.97225C3.75 6.62399 4.1571 5.67872 4.80096 5.06666C5.35694 4.53814 6.16008 4.19103 7.21582 4.10193V5.04078C7.21582 5.45499 7.55161 5.79078 7.96582 5.79078C8.38003 5.79078 8.71582 5.45499 8.71582 5.04078V4.07922H15.2939ZM3.75 9.9043V17.0219C3.75 18.3974 4.1594 19.3659 4.8062 19.9928C5.45673 20.6233 6.44222 21 7.77096 21H16.229C17.5663 21 18.5528 20.6281 19.2013 20.009C19.8444 19.3949 20.25 18.447 20.25 17.0975V9.9043H3.75ZM16.4419 12.3097C16.0277 12.3097 15.6919 12.6455 15.6919 13.0597C15.6919 13.4739 16.0277 13.8097 16.4419 13.8097H16.4512C16.8654 13.8097 17.2012 13.4739 17.2012 13.0597C17.2012 12.6455 16.8654 12.3097 16.4512 12.3097H16.4419ZM11.2544 13.0597C11.2544 12.6455 11.5902 12.3097 12.0044 12.3097H12.0137C12.4279 12.3097 12.7637 12.6455 12.7637 13.0597C12.7637 13.4739 12.4279 13.8097 12.0137 13.8097H12.0044C11.5902 13.8097 11.2544 13.4739 11.2544 13.0597ZM7.55762 12.3097C7.1434 12.3097 6.80762 12.6455 6.80762 13.0597C6.80762 13.4739 7.1434 13.8097 7.55762 13.8097H7.56688C7.98109 13.8097 8.31688 13.4739 8.31688 13.0597C8.31688 12.6455 7.98109 12.3097 7.56688 12.3097H7.55762ZM15.6919 16.9462C15.6919 16.532 16.0277 16.1962 16.4419 16.1962H16.4512C16.8654 16.1962 17.2012 16.532 17.2012 16.9462C17.2012 17.3604 16.8654 17.6962 16.4512 17.6962H16.4419C16.0277 17.6962 15.6919 17.3604 15.6919 16.9462ZM12.0044 16.1962C11.5902 16.1962 11.2544 16.532 11.2544 16.9462C11.2544 17.3604 11.5902 17.6962 12.0044 17.6962H12.0137C12.4279 17.6962 12.7637 17.3604 12.7637 16.9462C12.7637 16.532 12.4279 16.1962 12.0137 16.1962H12.0044ZM6.80762 16.9462C6.80762 16.532 7.1434 16.1962 7.55762 16.1962H7.56688C7.98109 16.1962 8.31688 16.532 8.31688 16.9462C8.31688 17.3604 7.98109 17.6962 7.56688 17.6962H7.55762C7.1434 17.6962 6.80762 17.3604 6.80762 16.9462Z" fill="#F19B6A"/>
</svg>
