<svg width="18" height="14" viewBox="0 0 18 14" fill="none" xmlns="http://www.w3.org/2000/svg">
<rect x="0.25" y="0.75" width="17.5" height="12.5" rx="1.75" fill="white" stroke="#F5F5F5" stroke-width="0.5"/>
<mask id="mask0_60_2327" style="mask-type:alpha" maskUnits="userSpaceOnUse" x="0" y="0" width="18" height="14">
<rect x="0.25" y="0.75" width="17.5" height="12.5" rx="1.75" fill="white" stroke="white" stroke-width="0.5"/>
</mask>
<g mask="url(#mask0_60_2327)">
<path fill-rule="evenodd" clip-rule="evenodd" d="M0 4.83333H18V0.5H0V4.83333Z" fill="#04AAC8"/>
<path fill-rule="evenodd" clip-rule="evenodd" d="M0 13.5H18V9.16666H0V13.5Z" fill="#23C840"/>
<path fill-rule="evenodd" clip-rule="evenodd" d="M2.99995 3.96667C3.26434 3.96667 3.5101 3.88598 3.71444 3.74762C3.69076 3.7492 3.66688 3.75 3.6428 3.75C3.05107 3.75 2.57138 3.26498 2.57138 2.66667C2.57138 2.06836 3.05107 1.58334 3.6428 1.58334C3.66688 1.58334 3.69076 1.58414 3.71444 1.58572C3.5101 1.44736 3.26434 1.36667 2.99995 1.36667C2.28987 1.36667 1.71423 1.9487 1.71423 2.66667C1.71423 3.38464 2.28987 3.96667 2.99995 3.96667ZM5.14281 3.53334C5.14281 3.77266 4.95093 3.96667 4.71423 3.96667C4.47754 3.96667 4.28566 3.77266 4.28566 3.53334C4.28566 3.29401 4.47754 3.1 4.71423 3.1C4.95093 3.1 5.14281 3.29401 5.14281 3.53334ZM6.42852 2.23334C6.66521 2.23334 6.85709 2.03933 6.85709 1.8C6.85709 1.56068 6.66521 1.36667 6.42852 1.36667C6.19182 1.36667 5.99995 1.56068 5.99995 1.8C5.99995 2.03933 6.19182 2.23334 6.42852 2.23334ZM8.57138 1.8C8.57138 2.03933 8.3795 2.23334 8.1428 2.23334C7.90611 2.23334 7.71423 2.03933 7.71423 1.8C7.71423 1.56068 7.90611 1.36667 8.1428 1.36667C8.3795 1.36667 8.57138 1.56068 8.57138 1.8ZM8.1428 3.96667C8.3795 3.96667 8.57138 3.77266 8.57138 3.53334C8.57138 3.29401 8.3795 3.1 8.1428 3.1C7.90611 3.1 7.71423 3.29401 7.71423 3.53334C7.71423 3.77266 7.90611 3.96667 8.1428 3.96667ZM6.85709 3.53334C6.85709 3.77266 6.66521 3.96667 6.42852 3.96667C6.19182 3.96667 5.99995 3.77266 5.99995 3.53334C5.99995 3.29401 6.19182 3.1 6.42852 3.1C6.66521 3.1 6.85709 3.29401 6.85709 3.53334Z" fill="white"/>
</g>
</svg>
