<svg width="18" height="14" viewBox="0 0 18 14" fill="none" xmlns="http://www.w3.org/2000/svg">
<rect x="0.25" y="0.75" width="17.5" height="12.5" rx="1.75" fill="white" stroke="#F5F5F5" stroke-width="0.5"/>
<mask id="mask0_60_888" style="mask-type:alpha" maskUnits="userSpaceOnUse" x="0" y="0" width="18" height="14">
<rect x="0.25" y="0.75" width="17.5" height="12.5" rx="1.75" fill="white" stroke="white" stroke-width="0.5"/>
</mask>
<g mask="url(#mask0_60_888)">
<path fill-rule="evenodd" clip-rule="evenodd" d="M9 10.0333C10.6569 10.0333 12 8.67527 12 7.00001C12 5.32474 10.6569 3.96667 9 3.96667C7.34315 3.96667 6 5.32474 6 7.00001C6 8.67527 7.34315 10.0333 9 10.0333Z" fill="#E01B41"/>
<mask id="mask1_60_888" style="mask-type:alpha" maskUnits="userSpaceOnUse" x="6" y="3" width="6" height="8">
<path fill-rule="evenodd" clip-rule="evenodd" d="M9 10.0333C10.6569 10.0333 12 8.67527 12 7.00001C12 5.32474 10.6569 3.96667 9 3.96667C7.34315 3.96667 6 5.32474 6 7.00001C6 8.67527 7.34315 10.0333 9 10.0333Z" fill="white"/>
</mask>
<g mask="url(#mask1_60_888)">
<path fill-rule="evenodd" clip-rule="evenodd" d="M6 7.43334C6.85714 8.24584 8.14286 8.73334 9 7.43334C9.85714 6.13334 11.5714 6.13334 12 7.43334C12.4286 8.73334 12 10.0333 12 10.0333H6C6 10.0333 5.14286 6.62084 6 7.43334Z" fill="#0E4B9C"/>
</g>
<path opacity="0.75" fill-rule="evenodd" clip-rule="evenodd" d="M3.91025 2.91363C4.00154 2.75377 4.20443 2.69941 4.36341 2.79222L4.52998 2.88945C4.68896 2.98226 4.74385 3.1871 4.65256 3.34697L3.69742 5.0197C3.60614 5.17957 3.40325 5.23393 3.24426 5.14112L3.0777 5.04388C2.91871 4.95107 2.86383 4.74624 2.95511 4.58637L3.91025 2.91363ZM13.47 2.88945C13.311 2.98226 13.2561 3.1871 13.3474 3.34697L14.3026 5.0197C14.3938 5.17957 14.5967 5.23393 14.7557 5.14112L14.9223 5.04388C15.0813 4.95107 15.1361 4.74624 15.0449 4.58637L14.0897 2.91363C13.9984 2.75377 13.7956 2.69941 13.6366 2.79222L13.47 2.88945ZM12.3565 3.53945C12.1976 3.63226 12.1427 3.8371 12.234 3.99697L13.1891 5.6697C13.2804 5.82957 13.4833 5.88393 13.6423 5.79112L13.8088 5.69388C13.9678 5.60107 14.0227 5.39624 13.9314 5.23637L12.9763 3.56363C12.885 3.40377 12.6821 3.34941 12.5231 3.44222L12.3565 3.53945ZM2.95511 9.41363C2.86383 9.25377 2.91871 9.04893 3.0777 8.95612L3.24426 8.85888C3.40325 8.76607 3.60614 8.82043 3.69742 8.9803L4.65256 10.653C4.74385 10.8129 4.68896 11.0177 4.52998 11.1106L4.36341 11.2078C4.20443 11.3006 4.00154 11.2462 3.91025 11.0864L2.95511 9.41363ZM4.19116 8.30612C4.03217 8.39893 3.97729 8.60377 4.06858 8.76363L5.02372 10.4364C5.115 10.5962 5.31789 10.6506 5.47687 10.5578L5.64344 10.4605C5.80243 10.3677 5.85731 10.1629 5.76602 10.003L4.81088 8.3303C4.7196 8.17043 4.51671 8.11607 4.35772 8.20888L4.19116 8.30612ZM13.1891 8.3303C13.2804 8.17043 13.4833 8.11607 13.6423 8.20888L13.8088 8.30612C13.9678 8.39893 14.0227 8.60377 13.9314 8.76364L12.9763 10.4364C12.885 10.5962 12.6821 10.6506 12.5231 10.5578L12.3565 10.4605C12.1976 10.3677 12.1427 10.1629 12.234 10.003L13.1891 8.3303ZM14.7557 8.85889C14.5967 8.76607 14.3938 8.82043 14.3026 8.9803L13.3474 10.653C13.2561 10.8129 13.311 11.0177 13.47 11.1105L13.6366 11.2078C13.7956 11.3006 13.9984 11.2462 14.0897 11.0864L15.0449 9.41364C15.1361 9.25377 15.0813 9.04893 14.9223 8.95612L14.7557 8.85889ZM5.47687 3.44222C5.31789 3.34941 5.115 3.40377 5.02372 3.56363L4.06858 5.23637C3.97729 5.39624 4.03217 5.60107 4.19116 5.69388L4.35772 5.79112C4.51671 5.88393 4.7196 5.82957 4.81088 5.6697L5.76602 3.99697C5.85731 3.8371 5.80243 3.63226 5.64344 3.53945L5.47687 3.44222Z" fill="#262626"/>
</g>
</svg>
