<svg width="18" height="14" viewBox="0 0 18 14" fill="none" xmlns="http://www.w3.org/2000/svg">
<rect y="0.5" width="18" height="13" rx="2" fill="white"/>
<mask id="mask0_60_2394" style="mask-type:alpha" maskUnits="userSpaceOnUse" x="0" y="0" width="18" height="14">
<rect y="0.5" width="18" height="13" rx="2" fill="white"/>
</mask>
<g mask="url(#mask0_60_2394)">
<path fill-rule="evenodd" clip-rule="evenodd" d="M0 3.96667H18V0.5H0V3.96667Z" fill="#DD172C"/>
<path fill-rule="evenodd" clip-rule="evenodd" d="M0 13.5H18V10.0333H0V13.5Z" fill="#DD172C"/>
<path fill-rule="evenodd" clip-rule="evenodd" d="M0 10.0333H18V3.96667H0V10.0333Z" fill="#FFD133"/>
<path fill-rule="evenodd" clip-rule="evenodd" d="M4.71429 6.56668H5.57144V7.00001H4.71429V6.56668Z" fill="#FFEDB1"/>
<path d="M4.03449 6.82738C4.01848 6.63314 4.1718 6.46666 4.36669 6.46666H5.06181C5.2567 6.46666 5.41002 6.63314 5.39401 6.82738L5.30959 7.85171C5.28406 8.16154 5.02514 8.4 4.71425 8.4C4.40336 8.4 4.14445 8.16154 4.11891 7.85171L4.03449 6.82738Z" stroke="#A41517" stroke-width="0.666667"/>
<path fill-rule="evenodd" clip-rule="evenodd" d="M3.85718 7H5.57146V7.43333H5.14289L4.71432 8.3L4.28575 7.43333H3.85718V7Z" fill="#A41517"/>
<rect x="2.57141" y="5.70001" width="0.857142" height="3.03333" rx="0.428571" fill="#A41517"/>
<rect x="6" y="5.70001" width="0.857143" height="3.03333" rx="0.428572" fill="#A41517"/>
<path d="M3.85718 5.52668C3.85718 5.14376 4.16759 4.83334 4.55051 4.83334H4.87813C5.26105 4.83334 5.57146 5.14376 5.57146 5.52668C5.57146 5.62241 5.49386 5.70001 5.39813 5.70001H4.03051C3.93478 5.70001 3.85718 5.62241 3.85718 5.52668Z" fill="#A41517"/>
</g>
</svg>
