<svg width="18" height="14" viewBox="0 0 18 14" fill="none" xmlns="http://www.w3.org/2000/svg">
<rect y="0.5" width="18" height="13" rx="2" fill="white"/>
<mask id="mask0_60_2459" style="mask-type:alpha" maskUnits="userSpaceOnUse" x="0" y="0" width="18" height="14">
<rect y="0.5" width="18" height="13" rx="2" fill="white"/>
</mask>
<g mask="url(#mask0_60_2459)">
<path fill-rule="evenodd" clip-rule="evenodd" d="M18 0.5H0V1.36667H18V0.5ZM18 2.23333H0V3.1H18V2.23333ZM0 3.96667H18V4.83333H0V3.96667ZM18 5.7H0V6.56667H18V5.7ZM0 7.43333H18V8.3H0V7.43333ZM18 9.16667H0V10.0333H18V9.16667ZM0 10.9H18V11.7667H0V10.9ZM18 12.6333H0V13.5H18V12.6333Z" fill="#D02F44"/>
<rect y="0.5" width="7.71429" height="6.06667" fill="#46467F"/>
<g filter="url(#filter0_d_60_2459)">
<path fill-rule="evenodd" clip-rule="evenodd" d="M1.71432 1.79997C1.71432 2.03929 1.52244 2.2333 1.28575 2.2333C1.04906 2.2333 0.857178 2.03929 0.857178 1.79997C0.857178 1.56065 1.04906 1.36664 1.28575 1.36664C1.52244 1.36664 1.71432 1.56065 1.71432 1.79997ZM3.42861 1.79997C3.42861 2.03929 3.23673 2.2333 3.00004 2.2333C2.76334 2.2333 2.57146 2.03929 2.57146 1.79997C2.57146 1.56065 2.76334 1.36664 3.00004 1.36664C3.23673 1.36664 3.42861 1.56065 3.42861 1.79997ZM4.71432 2.2333C4.95101 2.2333 5.14289 2.03929 5.14289 1.79997C5.14289 1.56065 4.95101 1.36664 4.71432 1.36664C4.47763 1.36664 4.28575 1.56065 4.28575 1.79997C4.28575 2.03929 4.47763 2.2333 4.71432 2.2333ZM6.85718 1.79997C6.85718 2.03929 6.6653 2.2333 6.42861 2.2333C6.19191 2.2333 6.00003 2.03929 6.00003 1.79997C6.00003 1.56065 6.19191 1.36664 6.42861 1.36664C6.6653 1.36664 6.85718 1.56065 6.85718 1.79997ZM2.14289 3.09997C2.37959 3.09997 2.57146 2.90596 2.57146 2.66664C2.57146 2.42731 2.37959 2.2333 2.14289 2.2333C1.9062 2.2333 1.71432 2.42731 1.71432 2.66664C1.71432 2.90596 1.9062 3.09997 2.14289 3.09997ZM4.28575 2.66664C4.28575 2.90596 4.09387 3.09997 3.85718 3.09997C3.62048 3.09997 3.42861 2.90596 3.42861 2.66664C3.42861 2.42731 3.62048 2.2333 3.85718 2.2333C4.09387 2.2333 4.28575 2.42731 4.28575 2.66664ZM5.57146 3.09997C5.80816 3.09997 6.00003 2.90596 6.00003 2.66664C6.00003 2.42731 5.80816 2.2333 5.57146 2.2333C5.33477 2.2333 5.14289 2.42731 5.14289 2.66664C5.14289 2.90596 5.33477 3.09997 5.57146 3.09997ZM6.85718 3.53331C6.85718 3.77263 6.6653 3.96664 6.42861 3.96664C6.19191 3.96664 6.00003 3.77263 6.00003 3.53331C6.00003 3.29398 6.19191 3.09997 6.42861 3.09997C6.6653 3.09997 6.85718 3.29398 6.85718 3.53331ZM4.71432 3.96664C4.95101 3.96664 5.14289 3.77263 5.14289 3.53331C5.14289 3.29398 4.95101 3.09997 4.71432 3.09997C4.47763 3.09997 4.28575 3.29398 4.28575 3.53331C4.28575 3.77263 4.47763 3.96664 4.71432 3.96664ZM3.42861 3.53331C3.42861 3.77263 3.23673 3.96664 3.00004 3.96664C2.76334 3.96664 2.57146 3.77263 2.57146 3.53331C2.57146 3.29398 2.76334 3.09997 3.00004 3.09997C3.23673 3.09997 3.42861 3.29398 3.42861 3.53331ZM1.28575 3.96664C1.52244 3.96664 1.71432 3.77263 1.71432 3.53331C1.71432 3.29398 1.52244 3.09997 1.28575 3.09997C1.04906 3.09997 0.857178 3.29398 0.857178 3.53331C0.857178 3.77263 1.04906 3.96664 1.28575 3.96664ZM2.57146 4.39997C2.57146 4.63929 2.37959 4.8333 2.14289 4.8333C1.9062 4.8333 1.71432 4.63929 1.71432 4.39997C1.71432 4.16065 1.9062 3.96664 2.14289 3.96664C2.37959 3.96664 2.57146 4.16065 2.57146 4.39997ZM3.85718 4.8333C4.09387 4.8333 4.28575 4.63929 4.28575 4.39997C4.28575 4.16065 4.09387 3.96664 3.85718 3.96664C3.62048 3.96664 3.42861 4.16065 3.42861 4.39997C3.42861 4.63929 3.62048 4.8333 3.85718 4.8333ZM6.00003 4.39997C6.00003 4.63929 5.80816 4.8333 5.57146 4.8333C5.33477 4.8333 5.14289 4.63929 5.14289 4.39997C5.14289 4.16065 5.33477 3.96664 5.57146 3.96664C5.80816 3.96664 6.00003 4.16065 6.00003 4.39997ZM6.42861 5.69997C6.6653 5.69997 6.85718 5.50596 6.85718 5.26664C6.85718 5.02731 6.6653 4.8333 6.42861 4.8333C6.19191 4.8333 6.00003 5.02731 6.00003 5.26664C6.00003 5.50596 6.19191 5.69997 6.42861 5.69997ZM5.14289 5.26664C5.14289 5.50596 4.95101 5.69997 4.71432 5.69997C4.47763 5.69997 4.28575 5.50596 4.28575 5.26664C4.28575 5.02731 4.47763 4.8333 4.71432 4.8333C4.95101 4.8333 5.14289 5.02731 5.14289 5.26664ZM3.00004 5.69997C3.23673 5.69997 3.42861 5.50596 3.42861 5.26664C3.42861 5.02731 3.23673 4.8333 3.00004 4.8333C2.76334 4.8333 2.57146 5.02731 2.57146 5.26664C2.57146 5.50596 2.76334 5.69997 3.00004 5.69997ZM1.71432 5.26664C1.71432 5.50596 1.52244 5.69997 1.28575 5.69997C1.04906 5.69997 0.857178 5.50596 0.857178 5.26664C0.857178 5.02731 1.04906 4.8333 1.28575 4.8333C1.52244 4.8333 1.71432 5.02731 1.71432 5.26664Z" fill="url(#paint0_linear_60_2459)"/>
</g>
</g>
<defs>
<filter id="filter0_d_60_2459" x="0.857178" y="1.36664" width="6" height="5.33331" filterUnits="userSpaceOnUse" color-interpolation-filters="sRGB">
<feFlood flood-opacity="0" result="BackgroundImageFix"/>
<feColorMatrix in="SourceAlpha" type="matrix" values="0 0 0 0 0 0 0 0 0 0 0 0 0 0 0 0 0 0 127 0" result="hardAlpha"/>
<feOffset dy="1"/>
<feColorMatrix type="matrix" values="0 0 0 0 0 0 0 0 0 0 0 0 0 0 0 0 0 0 0.06 0"/>
<feBlend mode="normal" in2="BackgroundImageFix" result="effect1_dropShadow_60_2459"/>
<feBlend mode="normal" in="SourceGraphic" in2="effect1_dropShadow_60_2459" result="shape"/>
</filter>
<linearGradient id="paint0_linear_60_2459" x1="0.857178" y1="1.36664" x2="0.857178" y2="5.69997" gradientUnits="userSpaceOnUse">
<stop stop-color="white"/>
<stop offset="1" stop-color="#F0F0F0"/>
</linearGradient>
</defs>
</svg>
