<svg width="24" height="24" viewBox="0 0 24 24" fill="none" xmlns="http://www.w3.org/2000/svg">
<path fill-rule="evenodd" clip-rule="evenodd" d="M9.87639 15.2067C6.03239 15.2067 2.74939 15.7877 2.74939 18.1157C2.74939 20.4427 6.01139 21.0457 9.87639 21.0457C13.7204 21.0457 17.0034 20.4637 17.0034 18.1367C17.0034 15.8097 13.7414 15.2067 9.87639 15.2067Z" stroke="#22222C" stroke-width="1.5" stroke-linecap="round" stroke-linejoin="round"/>
<path fill-rule="evenodd" clip-rule="evenodd" d="M9.87635 11.8864C12.4123 11.8864 14.4443 9.8534 14.4443 7.3184C14.4443 4.7824 12.4123 2.7504 9.87635 2.7504C7.34135 2.7504 5.30835 4.7824 5.30835 7.3184C5.30835 9.8534 7.34135 11.8864 9.87635 11.8864Z" stroke="#22222C" stroke-width="1.5" stroke-linecap="round" stroke-linejoin="round"/>
<path d="M19.4989 8.0004V13.0004" stroke="#22222C" stroke-width="1.5" stroke-linecap="round" stroke-linejoin="round"/>
<path d="M21.9989 10.5004H16.9989" stroke="#22222C" stroke-width="1.5" stroke-linecap="round" stroke-linejoin="round"/>
</svg>
