<svg width="42" height="42" viewBox="0 0 42 42" fill="none" xmlns="http://www.w3.org/2000/svg">
<circle cx="21" cy="21" r="21" fill="#CCF8FE"/>
<path fill-rule="evenodd" clip-rule="evenodd" d="M25.7939 10.75C25.7939 10.3358 25.4582 10 25.0439 10C24.6297 10 24.2939 10.3358 24.2939 10.75V11.5792H17.7158V10.75C17.7158 10.3358 17.38 10 16.9658 10C16.5516 10 16.2158 10.3358 16.2158 10.75V11.5978C14.8451 11.6912 13.6517 12.1389 12.7675 12.9795C11.76 13.9372 11.25 15.3134 11.25 16.9722V26.0219C11.25 27.7008 11.7577 29.0963 12.7622 30.0699C13.763 31.0399 15.163 31.5 16.771 31.5H25.229C26.8377 31.5 28.2366 31.0492 29.2371 30.0939C30.243 29.1335 30.75 27.7552 30.75 26.0975V16.9733C30.7548 15.3156 30.2504 13.9388 29.2448 12.9802C28.3619 12.1386 27.1678 11.691 25.7939 11.5977V10.75ZM24.2939 13.0792V14.0408C24.2939 14.455 24.6297 14.7908 25.0439 14.7908C25.4582 14.7908 25.7939 14.455 25.7939 14.0408V13.1018C26.8535 13.1908 27.6561 13.5381 28.2098 14.0659C28.8507 14.6769 29.2541 15.6211 29.25 16.9699L29.25 16.9722V17.4043H12.75V16.9722C12.75 15.624 13.1571 14.6787 13.801 14.0667C14.3569 13.5381 15.1601 13.191 16.2158 13.1019V14.0408C16.2158 14.455 16.5516 14.7908 16.9658 14.7908C17.38 14.7908 17.7158 14.455 17.7158 14.0408V13.0792H24.2939ZM12.75 18.9043V26.0219C12.75 27.3974 13.1594 28.3659 13.8062 28.9928C14.4567 29.6233 15.4422 30 16.771 30H25.229C26.5663 30 27.5528 29.6281 28.2013 29.009C28.8444 28.3949 29.25 27.447 29.25 26.0975V18.9043H12.75ZM25.4419 21.3097C25.0277 21.3097 24.6919 21.6455 24.6919 22.0597C24.6919 22.4739 25.0277 22.8097 25.4419 22.8097H25.4512C25.8654 22.8097 26.2012 22.4739 26.2012 22.0597C26.2012 21.6455 25.8654 21.3097 25.4512 21.3097H25.4419ZM20.2544 22.0597C20.2544 21.6455 20.5902 21.3097 21.0044 21.3097H21.0137C21.4279 21.3097 21.7637 21.6455 21.7637 22.0597C21.7637 22.4739 21.4279 22.8097 21.0137 22.8097H21.0044C20.5902 22.8097 20.2544 22.4739 20.2544 22.0597ZM16.5576 21.3097C16.1434 21.3097 15.8076 21.6455 15.8076 22.0597C15.8076 22.4739 16.1434 22.8097 16.5576 22.8097H16.5669C16.9811 22.8097 17.3169 22.4739 17.3169 22.0597C17.3169 21.6455 16.9811 21.3097 16.5669 21.3097H16.5576ZM24.6919 25.9462C24.6919 25.532 25.0277 25.1962 25.4419 25.1962H25.4512C25.8654 25.1962 26.2012 25.532 26.2012 25.9462C26.2012 26.3604 25.8654 26.6962 25.4512 26.6962H25.4419C25.0277 26.6962 24.6919 26.3604 24.6919 25.9462ZM21.0044 25.1962C20.5902 25.1962 20.2544 25.532 20.2544 25.9462C20.2544 26.3604 20.5902 26.6962 21.0044 26.6962H21.0137C21.4279 26.6962 21.7637 26.3604 21.7637 25.9462C21.7637 25.532 21.4279 25.1962 21.0137 25.1962H21.0044ZM15.8076 25.9462C15.8076 25.532 16.1434 25.1962 16.5576 25.1962H16.5669C16.9811 25.1962 17.3169 25.532 17.3169 25.9462C17.3169 26.3604 16.9811 26.6962 16.5669 26.6962H16.5576C16.1434 26.6962 15.8076 26.3604 15.8076 25.9462Z" fill="#27A2F8"/>
</svg>
