<svg width="42" height="42" viewBox="0 0 42 42" fill="none" xmlns="http://www.w3.org/2000/svg">
<circle cx="21" cy="21" r="21" fill="#E2FBD7"/>
<path d="M12.1278 22V20.4773L16.1676 16.517C16.554 16.1269 16.8759 15.7803 17.1335 15.4773C17.3911 15.1742 17.5843 14.8807 17.7131 14.5966C17.8419 14.3125 17.9062 14.0095 17.9062 13.6875C17.9062 13.3201 17.8229 13.0057 17.6562 12.7443C17.4896 12.4792 17.2604 12.2746 16.9688 12.1307C16.6771 11.9867 16.3456 11.9148 15.9744 11.9148C15.5919 11.9148 15.2566 11.9943 14.9688 12.1534C14.6809 12.3087 14.4574 12.5303 14.2983 12.8182C14.143 13.1061 14.0653 13.4489 14.0653 13.8466H12.0597C12.0597 13.108 12.2282 12.4659 12.5653 11.9205C12.9025 11.375 13.3665 10.9527 13.9574 10.6534C14.5521 10.3542 15.2339 10.2045 16.0028 10.2045C16.7831 10.2045 17.4688 10.3504 18.0597 10.642C18.6506 10.9337 19.1089 11.3333 19.4347 11.8409C19.7642 12.3485 19.929 12.928 19.929 13.5795C19.929 14.0152 19.8456 14.4432 19.679 14.8636C19.5123 15.2841 19.2188 15.75 18.7983 16.2614C18.3816 16.7727 17.7964 17.392 17.0426 18.1193L15.0369 20.1591V20.2386H20.1051V22H12.1278ZM25.8608 22.1591C25.1032 22.1591 24.4252 22.017 23.8267 21.733C23.2282 21.4451 22.7528 21.0511 22.4006 20.5511C22.0521 20.0511 21.8665 19.4792 21.8438 18.8352H23.8892C23.9271 19.3125 24.1335 19.7027 24.5085 20.0057C24.8835 20.3049 25.3343 20.4545 25.8608 20.4545C26.2737 20.4545 26.6411 20.3598 26.9631 20.1705C27.285 19.9811 27.5388 19.7178 27.7244 19.3807C27.91 19.0436 28.0009 18.6591 27.9972 18.2273C28.0009 17.7879 27.9081 17.3977 27.7188 17.0568C27.5294 16.7159 27.2699 16.4489 26.9403 16.2557C26.6108 16.0587 26.232 15.9602 25.804 15.9602C25.4555 15.9564 25.1127 16.0208 24.7756 16.1534C24.4384 16.286 24.1714 16.4602 23.9744 16.6761L22.071 16.3636L22.679 10.3636H29.429V12.125H24.4233L24.0881 15.2102H24.1562C24.3722 14.9564 24.6771 14.7462 25.071 14.5795C25.465 14.4091 25.8968 14.3239 26.3665 14.3239C27.071 14.3239 27.6998 14.4905 28.2528 14.8239C28.8059 15.1534 29.2415 15.608 29.5597 16.1875C29.8778 16.767 30.0369 17.4299 30.0369 18.1761C30.0369 18.9451 29.8589 19.6307 29.5028 20.233C29.1506 20.8314 28.66 21.303 28.0312 21.6477C27.4062 21.9886 26.6828 22.1591 25.8608 22.1591Z" fill="#34B53A"/>
<path d="M9.01314 34.0455V26.5455H9.8228V27.4119H9.92223C9.98378 27.3172 10.069 27.1965 10.1779 27.0497C10.2892 26.9006 10.4478 26.768 10.6538 26.652C10.8621 26.5336 11.1438 26.4744 11.4989 26.4744C11.9582 26.4744 12.363 26.5893 12.7134 26.8189C13.0638 27.0485 13.3372 27.3741 13.5337 27.7955C13.7302 28.2169 13.8285 28.714 13.8285 29.2869C13.8285 29.8646 13.7302 30.3653 13.5337 30.7891C13.3372 31.2105 13.065 31.5372 12.717 31.7692C12.369 31.9988 11.9677 32.1136 11.5131 32.1136C11.1628 32.1136 10.8822 32.0556 10.6715 31.9396C10.4608 31.8213 10.2987 31.6875 10.185 31.5384C10.0714 31.3868 9.98378 31.2614 9.92223 31.1619H9.85121V34.0455H9.01314ZM9.837 29.2727C9.837 29.6847 9.89737 30.0481 10.0181 30.3629C10.1388 30.6754 10.3152 30.9205 10.5472 31.098C10.7792 31.2732 11.0633 31.3608 11.3995 31.3608C11.7499 31.3608 12.0423 31.2685 12.2766 31.0838C12.5134 30.8968 12.6909 30.6458 12.8093 30.331C12.93 30.0137 12.9904 29.661 12.9904 29.2727C12.9904 28.8892 12.9312 28.5436 12.8129 28.2358C12.6969 27.9257 12.5205 27.6806 12.2837 27.5007C12.0494 27.3184 11.7546 27.2273 11.3995 27.2273C11.0586 27.2273 10.7721 27.3137 10.5401 27.4865C10.3081 27.657 10.1329 27.8961 10.0146 28.2038C9.89619 28.5092 9.837 28.8655 9.837 29.2727ZM15.945 24.7273V32H15.1069V24.7273H15.945ZM19.085 32.1278C18.7394 32.1278 18.4257 32.0627 18.144 31.9325C17.8623 31.8 17.6386 31.6094 17.4728 31.3608C17.3071 31.1098 17.2243 30.8068 17.2243 30.4517C17.2243 30.1392 17.2858 29.8859 17.4089 29.6918C17.532 29.4953 17.6966 29.3414 17.9025 29.2301C18.1085 29.1188 18.3358 29.036 18.5843 28.9815C18.8353 28.9247 19.0874 28.8797 19.3407 28.8466C19.6722 28.804 19.9409 28.772 20.1468 28.7507C20.3552 28.727 20.5067 28.688 20.6014 28.6335C20.6984 28.5791 20.747 28.4844 20.747 28.3494V28.321C20.747 27.9706 20.6511 27.6984 20.4593 27.5043C20.2699 27.3101 19.9823 27.2131 19.5964 27.2131C19.1963 27.2131 18.8826 27.3007 18.6554 27.4759C18.4281 27.651 18.2683 27.8381 18.176 28.0369L17.3805 27.7528C17.5225 27.4214 17.7119 27.1634 17.9487 26.9787C18.1878 26.7917 18.4482 26.6615 18.7299 26.5881C19.014 26.5123 19.2934 26.4744 19.568 26.4744C19.7432 26.4744 19.9444 26.4957 20.1717 26.5384C20.4013 26.5786 20.6227 26.6626 20.8358 26.7905C21.0512 26.9183 21.2299 27.1113 21.372 27.3693C21.514 27.6274 21.585 27.973 21.585 28.4062V32H20.747V31.2614H20.7044C20.6475 31.3797 20.5529 31.5064 20.4203 31.6413C20.2877 31.7763 20.1113 31.8911 19.8912 31.9858C19.671 32.0805 19.4023 32.1278 19.085 32.1278ZM19.2129 31.375C19.5443 31.375 19.8237 31.3099 20.051 31.1797C20.2806 31.0495 20.4534 30.8814 20.5694 30.6754C20.6878 30.4695 20.747 30.2528 20.747 30.0256V29.2585C20.7115 29.3011 20.6333 29.3402 20.5126 29.3757C20.3942 29.4089 20.2569 29.4384 20.1007 29.4645C19.9468 29.4882 19.7965 29.5095 19.6497 29.5284C19.5053 29.545 19.3881 29.5592 19.2981 29.571C19.0803 29.5994 18.8767 29.6456 18.6873 29.7095C18.5003 29.7711 18.3488 29.8646 18.2328 29.9901C18.1191 30.1132 18.0623 30.2812 18.0623 30.4943C18.0623 30.7855 18.17 31.0057 18.3855 31.1548C18.6033 31.3016 18.8791 31.375 19.2129 31.375ZM25.3306 32.1136C24.8192 32.1136 24.3789 31.9929 24.0096 31.7514C23.6403 31.5099 23.3562 31.1773 23.1573 30.7536C22.9585 30.3298 22.859 29.8456 22.859 29.3011C22.859 28.7472 22.9608 28.2583 23.1644 27.8345C23.3704 27.4084 23.6568 27.0758 24.0238 26.8366C24.3931 26.5952 24.824 26.4744 25.3164 26.4744C25.6999 26.4744 26.0456 26.5455 26.3533 26.6875C26.6611 26.8295 26.9132 27.0284 27.1097 27.2841C27.3062 27.5398 27.4281 27.8381 27.4755 28.179H26.6374C26.5735 27.9304 26.4315 27.7102 26.2113 27.5185C25.9935 27.3243 25.6999 27.2273 25.3306 27.2273C25.0039 27.2273 24.7174 27.3125 24.4712 27.483C24.2274 27.651 24.0368 27.889 23.8995 28.1967C23.7646 28.5021 23.6971 28.8608 23.6971 29.2727C23.6971 29.6941 23.7634 30.0611 23.896 30.3736C24.0309 30.6861 24.2203 30.9287 24.4641 31.1016C24.7103 31.2744 24.9992 31.3608 25.3306 31.3608C25.5484 31.3608 25.7461 31.3229 25.9237 31.2472C26.1012 31.1714 26.2515 31.0625 26.3746 30.9205C26.4978 30.7784 26.5853 30.608 26.6374 30.4091H27.4755C27.4281 30.7311 27.311 31.0211 27.1239 31.2791C26.9393 31.5348 26.6942 31.7384 26.3888 31.8899C26.0858 32.0391 25.7331 32.1136 25.3306 32.1136ZM30.9876 32.1136C30.462 32.1136 30.0086 31.9976 29.6275 31.7656C29.2487 31.5312 28.9563 31.2045 28.7504 30.7855C28.5468 30.3641 28.445 29.8741 28.445 29.3153C28.445 28.7566 28.5468 28.2642 28.7504 27.8381C28.9563 27.4096 29.2428 27.0758 29.6097 26.8366C29.979 26.5952 30.4099 26.4744 30.9023 26.4744C31.1864 26.4744 31.467 26.5218 31.744 26.6165C32.021 26.7112 32.2731 26.8651 32.5004 27.0781C32.7276 27.2888 32.9087 27.5682 33.0437 27.9162C33.1786 28.2642 33.2461 28.6927 33.2461 29.2017V29.5568H29.0415V28.8324H32.3938C32.3938 28.5246 32.3323 28.25 32.2092 28.0085C32.0884 27.767 31.9156 27.5765 31.6907 27.4368C31.4682 27.2971 31.2054 27.2273 30.9023 27.2273C30.5685 27.2273 30.2797 27.3101 30.0359 27.4759C29.7944 27.6392 29.6085 27.8523 29.4783 28.1151C29.3481 28.3778 29.283 28.6596 29.283 28.9602V29.4432C29.283 29.8551 29.354 30.2043 29.4961 30.4908C29.6405 30.7749 29.8406 30.9915 30.0962 31.1406C30.3519 31.2874 30.649 31.3608 30.9876 31.3608C31.2077 31.3608 31.4066 31.33 31.5842 31.2685C31.7641 31.2045 31.9192 31.1098 32.0494 30.9844C32.1796 30.8565 32.2802 30.6979 32.3512 30.5085L33.1609 30.7358C33.0756 31.0104 32.9324 31.2519 32.7312 31.4602C32.5299 31.6662 32.2814 31.8272 31.9854 31.9432C31.6895 32.0568 31.3569 32.1136 30.9876 32.1136Z" fill="#34B53A"/>
</svg>
