<svg width="24" height="24" viewBox="0 0 24 24" fill="none" xmlns="http://www.w3.org/2000/svg">
<path fill-rule="evenodd" clip-rule="evenodd" d="M20.0289 6.54347C19.5023 5.62954 18.3354 5.31426 17.4202 5.83866C16.9846 6.09529 16.4648 6.1681 15.9754 6.04103C15.486 5.91396 15.0673 5.59746 14.8115 5.16131C14.647 4.88409 14.5586 4.56834 14.5552 4.24598C14.5701 3.72916 14.3751 3.22835 14.0147 2.85761C13.6543 2.48688 13.1592 2.27781 12.6422 2.27802H11.3882C10.8816 2.27801 10.396 2.47986 10.0387 2.83889C9.68137 3.19792 9.48186 3.68454 9.48429 4.19106C9.46928 5.23687 8.61716 6.07675 7.57125 6.07665C7.24889 6.0733 6.93314 5.98489 6.65592 5.82035C5.74074 5.29596 4.57379 5.61124 4.04722 6.52516L3.37903 7.62356C2.85309 8.53634 3.16408 9.70255 4.07468 10.2323C4.66658 10.574 5.03121 11.2055 5.03121 11.889C5.03121 12.5725 4.66658 13.204 4.07468 13.5458C3.16524 14.0719 2.85391 15.2353 3.37903 16.1453L4.01061 17.2345C4.25733 17.6797 4.67128 18.0082 5.16087 18.1474C5.65046 18.2865 6.17532 18.2248 6.6193 17.976C7.05576 17.7213 7.57587 17.6515 8.06402 17.7821C8.55217 17.9128 8.96792 18.233 9.21884 18.6716C9.38338 18.9488 9.47179 19.2646 9.47514 19.5869C9.47514 20.6435 10.3316 21.5 11.3882 21.5H12.6422C13.6952 21.5 14.5502 20.6491 14.5552 19.5961C14.5528 19.088 14.7535 18.6 15.1128 18.2407C15.4721 17.8814 15.9602 17.6806 16.4683 17.6831C16.7899 17.6917 17.1043 17.7797 17.3836 17.9393C18.2964 18.4653 19.4626 18.1543 19.9923 17.2437L20.6513 16.1453C20.9064 15.7074 20.9765 15.186 20.8459 14.6963C20.7153 14.2067 20.3949 13.7893 19.9557 13.5366C19.5164 13.2839 19.1961 12.8665 19.0655 12.3769C18.9349 11.8872 19.0049 11.3658 19.26 10.9279C19.4259 10.6383 19.6661 10.3981 19.9557 10.2323C20.8608 9.70284 21.1711 8.54344 20.6513 7.63271L20.0289 6.54347Z" stroke="black" stroke-width="1.5" stroke-linecap="round" stroke-linejoin="round"/>
<circle cx="12" cy="12" r="3" stroke="black" stroke-width="1.5" stroke-linecap="round" stroke-linejoin="round"/>
</svg>
