<svg width="16" height="16" viewBox="0 0 16 16" fill="none" xmlns="http://www.w3.org/2000/svg">
<path fill-rule="evenodd" clip-rule="evenodd" d="M1.33334 8.00001C1.33334 4.32401 4.32401 1.33334 8.00001 1.33334C11.676 1.33334 14.6667 4.32401 14.6667 8.00001C14.6667 11.676 11.676 14.6667 8.00001 14.6667C4.32401 14.6667 1.33334 11.676 1.33334 8.00001Z" stroke="#ABABAB" stroke-width="2" stroke-linecap="round" stroke-linejoin="round"/>
<path d="M2.33334 11.3333C3.93334 11.0667 4.33334 9.00001 4.33334 8.00001C4.33334 5.97497 5.97497 4.33334 8.00001 4.33334C10.0251 4.33334 11.6667 5.97497 11.6667 8.00001C11.6667 10.0251 10.0251 11.6667 8.00001 11.6667C7.22223 11.6667 5.60001 12.1333 5.33334 14" stroke="#ABABAB" stroke-width="2"/>
</svg>
