<svg width="24" height="24" viewBox="0 0 24 24" fill="none" xmlns="http://www.w3.org/2000/svg">
<path d="M5.25351 22.9981C4.79963 22.795 4.68616 22.4323 4.69089 21.9694C4.70602 20.3942 4.69562 18.819 4.69751 17.2439C4.69751 16.7977 4.87906 16.5212 5.24689 16.4155C5.35563 16.3839 5.47667 16.3812 5.59203 16.3812C6.62082 16.3784 7.64961 16.3793 8.68881 16.3793C8.77485 16.1595 8.84483 15.935 8.9479 15.7262C9.37719 14.8496 10.0618 14.2531 11.0149 13.9711C11.1842 13.921 11.2466 13.8468 11.2362 13.6715C11.2201 13.4006 11.2258 13.1269 11.2343 12.8551C11.2381 12.7318 11.1965 12.6742 11.0736 12.6511C9.68545 12.382 8.68975 11.5666 7.92005 10.4479C7.78861 10.2568 7.65812 10.1612 7.40944 10.1278C5.4691 9.86066 3.93253 8.45155 3.50986 6.5582C3.43137 6.20477 3.40773 5.83556 3.39922 5.47284C3.38315 4.7066 3.39261 3.94036 3.3945 3.17504C3.39639 2.55722 3.67533 2.28356 4.30036 2.2817C4.78923 2.28078 5.27809 2.2817 5.76696 2.28078C5.83788 2.28078 5.9088 2.27521 6.00336 2.27057C6.00336 2.10174 6.00052 1.94589 6.0043 1.79097C6.0147 1.31137 6.33147 1.00154 6.81939 1.00154C10.2727 0.999682 13.725 0.999682 17.1763 1.00061C17.6643 1.00061 17.982 1.31045 17.9914 1.79097C17.9943 1.94682 17.9924 2.10174 17.9924 2.2817C18.4226 2.2817 18.8292 2.28078 19.2358 2.2817C19.4543 2.28263 19.6736 2.27707 19.8921 2.28913C20.2665 2.30953 20.5644 2.57206 20.5823 2.94034C20.6079 3.47653 20.6135 4.01364 20.5975 4.54983C20.5776 5.22052 20.6116 5.90699 20.4764 6.55728C20.0679 8.52576 18.4472 9.92096 16.4142 10.1584C16.3206 10.1696 16.2137 10.2633 16.1561 10.3468C15.6209 11.1316 14.9854 11.8171 14.1108 12.2392C13.7486 12.4136 13.3515 12.5193 12.9647 12.6409C12.8314 12.6826 12.752 12.716 12.7605 12.8783C12.7766 13.1641 12.7567 13.4516 12.7709 13.7373C12.7747 13.8069 12.8418 13.9145 12.9023 13.934C14.1164 14.3097 14.9013 15.0936 15.2615 16.2893C15.2701 16.3162 15.2842 16.3422 15.3013 16.3821C16.0265 16.3821 16.7556 16.3821 17.4846 16.3821C17.8345 16.3821 18.1853 16.3784 18.5351 16.3839C18.9247 16.3904 19.2122 16.6353 19.2765 17.012C19.2935 17.1103 19.2973 17.2114 19.2982 17.3107C19.2992 18.8645 19.2897 20.4183 19.3048 21.9722C19.3096 22.4341 19.1952 22.7968 18.7422 23C14.2469 22.9981 9.74975 22.9981 5.25351 22.9981ZM7.54371 2.51176C7.56829 2.95333 7.5872 3.37448 7.61463 3.79564C7.69122 4.99696 7.8567 6.18529 8.18954 7.34578C8.49685 8.41445 8.92331 9.42374 9.70814 10.2549C10.9478 11.5666 13.0385 11.5694 14.28 10.2633C14.9996 9.5063 15.4157 8.59348 15.7249 7.62408C16.0483 6.61015 16.2194 5.56654 16.3272 4.51365C16.3943 3.85408 16.417 3.18988 16.4596 2.51269C13.4782 2.51176 10.527 2.51176 7.54371 2.51176ZM17.7579 17.8803C17.6529 17.8803 17.5735 17.8803 17.4941 17.8803C16.5891 17.8803 15.6842 17.8803 14.7793 17.8803C14.1599 17.8803 13.8838 17.627 13.8394 17.0268C13.7675 16.0546 13.0092 15.3301 11.9965 15.3153C11.0253 15.3014 10.2244 16.0667 10.1592 17.0333C10.1195 17.6196 9.83674 17.8793 9.23535 17.8793C8.3153 17.8803 7.3962 17.8793 6.47615 17.8803C6.39955 17.8803 6.32296 17.8877 6.24921 17.8905C6.24921 19.1048 6.24921 20.295 6.24921 21.4824C10.0958 21.4824 13.9235 21.4824 17.7588 21.4824C17.7579 20.281 17.7579 19.0946 17.7579 17.8803ZM6.9357 8.47474C6.41279 6.91628 6.18964 5.36616 6.07522 3.7975C5.6828 3.7975 5.31497 3.7975 4.94998 3.7975C4.94998 4.52756 4.88662 5.24928 4.96416 5.95523C5.09371 7.13613 5.7802 7.95618 6.9357 8.47474ZM17.9196 3.79193C17.8118 5.38193 17.5763 6.92834 17.0752 8.44506C18.1304 8.08977 19.0155 6.93483 19.0486 5.87359C19.0694 5.2298 19.0628 4.58508 19.0675 3.94036C19.0675 3.89304 19.0562 3.84573 19.0495 3.791C18.6723 3.79193 18.3101 3.79193 17.9196 3.79193Z" fill="#22222C"/>
<path d="M11.9757 20.4387C11.1445 20.4387 10.3134 20.4424 9.4822 20.4368C8.94038 20.4331 8.61132 20.1233 8.62739 19.6492C8.63874 19.3116 8.89405 19.0166 9.23446 18.96C9.34887 18.9405 9.46613 18.9349 9.58243 18.9349C11.1937 18.9331 12.805 18.9331 14.4153 18.9349C14.5316 18.9349 14.6489 18.9405 14.7633 18.96C15.1264 19.0221 15.3779 19.3403 15.3684 19.716C15.3599 20.0722 15.0914 20.3932 14.7283 20.4164C14.2858 20.4452 13.8394 20.4359 13.396 20.4377C12.9232 20.4414 12.4494 20.4396 11.9757 20.4387Z" fill="#22222C"/>
</svg>
