<svg width="24" height="24" viewBox="0 0 24 24" fill="none" xmlns="http://www.w3.org/2000/svg">
<path d="M6.17563 23.0005C5.78278 22.8391 5.63689 22.5339 5.64392 22.0942C5.65974 21.1136 5.64831 20.133 5.64919 19.1534C5.65007 18.6209 5.9234 18.3268 6.42611 18.325C7.32079 18.3222 8.21635 18.325 9.11103 18.324C9.57859 18.324 9.75788 18.145 9.79127 17.6505C9.86598 16.5271 10.5559 15.6885 11.5921 15.4621C12.8462 15.1885 14.1188 16.2173 14.2014 17.5643C14.212 17.7377 14.2401 17.9251 14.3157 18.0754C14.4088 18.261 14.5943 18.3268 14.8008 18.3259C15.7025 18.3222 16.6042 18.324 17.5059 18.324C18.0904 18.324 18.3444 18.5959 18.3444 19.2174C18.3444 20.1766 18.3338 21.1359 18.3496 22.0942C18.3567 22.5339 18.2108 22.8391 17.8179 23.0005C13.9378 23.0005 10.0567 23.0005 6.17563 23.0005ZM12.0078 20.0635C11.1465 20.0635 10.2852 20.0635 9.42391 20.0635C9.34217 20.0635 9.26044 20.0635 9.18046 20.0709C8.9379 20.095 8.75246 20.2648 8.69094 20.5143C8.62942 20.7629 8.70324 21.0301 8.91241 21.1507C9.04776 21.2286 9.21826 21.2741 9.37294 21.275C11.0006 21.2834 12.6282 21.2806 14.2559 21.2806C14.4185 21.2806 14.582 21.2861 14.7445 21.2778C15.0188 21.2639 15.2253 21.1006 15.2982 20.8529C15.4195 20.4401 15.1532 20.069 14.7155 20.0662C13.8121 20.0588 12.9104 20.0635 12.0078 20.0635Z" fill="#22222C"/>
<path d="M7.01929 1.01163C10.3528 1.01163 13.645 1.01163 16.9179 1.01163C16.9179 1.46991 16.9531 1.92169 16.9109 2.36512C16.8107 3.43103 16.7123 4.49972 16.5435 5.5545C16.3388 6.8347 15.9731 8.06945 15.3245 9.18731C14.7287 10.2133 13.9535 11.0232 12.7899 11.2764C11.4699 11.564 10.3221 11.2032 9.38167 10.1679C8.52214 9.22256 8.06338 8.05275 7.72941 6.81893C7.37259 5.50162 7.19067 4.15184 7.11245 2.78629C7.07905 2.20371 7.05093 1.61834 7.01929 1.01163Z" fill="#22222C"/>
<path d="M16.2518 9.83204C16.4988 9.26615 16.7211 8.74665 16.9532 8.23364C16.9795 8.1752 17.0586 8.12881 17.1228 8.10562C18.6195 7.58055 19.5282 6.26046 19.5309 4.59805C19.5318 3.98949 19.5309 3.38186 19.5309 2.7733C19.5309 2.70373 19.5309 2.63415 19.5309 2.54416C19.0123 2.54416 18.514 2.54416 18.0227 2.54416C18.0227 2.02188 18.0227 1.52 18.0227 1.00143C18.594 1.00143 19.1284 1.00143 19.6627 1.00143C19.8657 1.00143 20.0696 0.997717 20.2726 1.00236C20.6549 1.01163 20.9801 1.30942 20.9819 1.71018C20.9872 2.86885 21.0337 4.03309 20.945 5.18528C20.7797 7.33008 19.3437 9.06763 17.3662 9.62516C17.0112 9.72628 16.6385 9.76246 16.2518 9.83204Z" fill="#22222C"/>
<path d="M5.97261 1.00147C5.97261 1.51912 5.97261 2.01543 5.97261 2.53308C5.49099 2.53308 4.99267 2.53308 4.50754 2.53308C4.48557 2.56369 4.46975 2.57482 4.46975 2.58595C4.48908 3.53497 4.35725 4.4942 4.54973 5.43116C4.82217 6.7596 5.60964 7.63626 6.81895 8.08526C6.95957 8.13721 7.04043 8.20957 7.10019 8.3515C7.30057 8.83297 7.51501 9.30887 7.72858 9.79683C7.06503 9.77642 6.42258 9.62985 5.82144 9.32186C4.37219 8.57786 3.46169 7.37094 3.11103 5.71039C3.03632 5.35787 3.01347 4.98773 3.0082 4.625C2.99414 3.70196 3.00205 2.77891 3.0038 1.85587C3.00468 1.31132 3.29559 1.00333 3.80709 1.0024C4.45129 1.00147 5.0955 1.0024 5.73883 1.0024C5.80562 1.00147 5.87154 1.00147 5.97261 1.00147Z" fill="#22222C"/>
<path d="M12.7152 12.4936C12.7152 13.1021 12.7152 13.7218 12.7152 14.3165C12.2397 14.3165 11.7704 14.3165 11.2844 14.3165C11.2844 13.7292 11.2844 13.1068 11.2844 12.4936C11.7616 12.4936 12.2327 12.4936 12.7152 12.4936Z" fill="#22222C"/>
</svg>
