<svg width="18" height="22" viewBox="0 0 18 22" fill="none" xmlns="http://www.w3.org/2000/svg">
<path d="M2.25351 21.9981C1.79963 21.795 1.68616 21.4323 1.69089 20.9694C1.70602 19.3942 1.69562 17.819 1.69751 16.2439C1.69751 15.7977 1.87906 15.5212 2.24689 15.4155C2.35563 15.3839 2.47667 15.3812 2.59203 15.3812C3.62082 15.3784 4.64961 15.3793 5.68881 15.3793C5.77485 15.1595 5.84483 14.935 5.9479 14.7262C6.37719 13.8496 7.06179 13.2531 8.01494 12.9711C8.1842 12.921 8.2466 12.8468 8.2362 12.6715C8.22013 12.4006 8.2258 12.1269 8.23431 11.8551C8.23809 11.7318 8.19649 11.6742 8.07356 11.6511C6.68545 11.382 5.68975 10.5666 4.92005 9.44787C4.78861 9.25677 4.65812 9.16122 4.40944 9.12783C2.4691 8.86066 0.932532 7.45155 0.509858 5.5582C0.431374 5.20477 0.407735 4.83556 0.399224 4.47284C0.38315 3.7066 0.392605 2.94036 0.394497 2.17504C0.396388 1.55722 0.675334 1.28356 1.30036 1.2817C1.78923 1.28078 2.27809 1.2817 2.76696 1.28078C2.83788 1.28078 2.9088 1.27521 3.00336 1.27057C3.00336 1.10174 3.00052 0.945892 3.0043 0.790973C3.0147 0.311374 3.33147 0.00153699 3.81939 0.00153699C7.27266 -0.000318322 10.725 -0.000318322 14.1763 0.000609336C14.6643 0.000609336 14.982 0.310447 14.9914 0.790973C14.9943 0.94682 14.9924 1.10174 14.9924 1.2817C15.4226 1.2817 15.8292 1.28078 16.2358 1.2817C16.4543 1.28263 16.6736 1.27707 16.8921 1.28913C17.2665 1.30953 17.5644 1.57206 17.5823 1.94034C17.6079 2.47653 17.6135 3.01364 17.5975 3.54983C17.5776 4.22052 17.6116 4.90699 17.4764 5.55728C17.0679 7.52576 15.4472 8.92096 13.4142 9.15844C13.3206 9.16957 13.2137 9.26327 13.1561 9.34676C12.6209 10.1316 11.9854 10.8171 11.1108 11.2392C10.7486 11.4136 10.3515 11.5193 9.96473 11.6409C9.8314 11.6826 9.75197 11.716 9.76048 11.8783C9.77656 12.1641 9.7567 12.4516 9.77088 12.7373C9.77466 12.8069 9.8418 12.9145 9.90232 12.934C11.1164 13.3097 11.9013 14.0936 12.2615 15.2893C12.2701 15.3162 12.2842 15.3422 12.3013 15.3821C13.0265 15.3821 13.7556 15.3821 14.4846 15.3821C14.8345 15.3821 15.1853 15.3784 15.5351 15.3839C15.9247 15.3904 16.2122 15.6353 16.2765 16.012C16.2935 16.1103 16.2973 16.2114 16.2982 16.3107C16.2992 17.8645 16.2897 19.4183 16.3048 20.9722C16.3096 21.4341 16.1952 21.7968 15.7422 22C11.2469 21.9981 6.74975 21.9981 2.25351 21.9981ZM4.54371 1.51176C4.56829 1.95333 4.5872 2.37448 4.61463 2.79564C4.69122 3.99696 4.8567 5.18529 5.18954 6.34578C5.49685 7.41445 5.92331 8.42374 6.70814 9.25492C7.9478 10.5666 10.0385 10.5694 11.28 9.26327C11.9996 8.5063 12.4157 7.59348 12.7249 6.62408C13.0483 5.61015 13.2194 4.56654 13.3272 3.51365C13.3943 2.85408 13.417 2.18988 13.4596 1.51269C10.4782 1.51176 7.52702 1.51176 4.54371 1.51176ZM14.7579 16.8803C14.6529 16.8803 14.5735 16.8803 14.4941 16.8803C13.5891 16.8803 12.6842 16.8803 11.7793 16.8803C11.1599 16.8803 10.8838 16.627 10.8394 16.0268C10.7675 15.0546 10.0092 14.3301 8.99645 14.3153C8.02534 14.3014 7.22443 15.0667 7.15919 16.0333C7.11947 16.6196 6.83674 16.8793 6.23535 16.8793C5.3153 16.8803 4.3962 16.8793 3.47615 16.8803C3.39955 16.8803 3.32296 16.8877 3.24921 16.8905C3.24921 18.1048 3.24921 19.295 3.24921 20.4824C7.09583 20.4824 10.9235 20.4824 14.7588 20.4824C14.7579 19.281 14.7579 18.0946 14.7579 16.8803ZM3.9357 7.47474C3.41279 5.91628 3.18964 4.36616 3.07522 2.7975C2.6828 2.7975 2.31497 2.7975 1.94998 2.7975C1.94998 3.52756 1.88662 4.24928 1.96416 4.95523C2.09371 6.13613 2.7802 6.95618 3.9357 7.47474ZM14.9196 2.79193C14.8118 4.38193 14.5763 5.92834 14.0752 7.44506C15.1304 7.08977 16.0155 5.93483 16.0486 4.87359C16.0694 4.2298 16.0628 3.58508 16.0675 2.94036C16.0675 2.89304 16.0562 2.84573 16.0495 2.791C15.6723 2.79193 15.3101 2.79193 14.9196 2.79193Z" fill="#22222C"/>
</svg>
