<svg width="175" height="44" viewBox="0 0 175 44" fill="none" xmlns="http://www.w3.org/2000/svg">
<path fill-rule="evenodd" clip-rule="evenodd" d="M142.103 25.8735L145.08 25.6025L150.68 19.9975L147.984 17.3005L142.367 22.9175L142.103 25.8735ZM149.324 15.9615L152.019 18.6565L153.966 16.7065L151.272 14.0125L149.324 15.9615ZM140.293 27.6855C140.083 27.4755 139.978 27.1835 140.004 26.8875L140.383 22.7175C140.425 22.2605 140.627 21.8295 140.953 21.5035L149.949 12.5075C150.651 11.8025 151.924 11.8375 152.665 12.5765L155.403 15.3145L155.404 15.3155C156.169 16.0815 156.2 17.2995 155.472 18.0295L146.475 27.0265C146.15 27.3515 145.719 27.5535 145.261 27.5955L141.091 27.9745C141.061 27.9765 141.031 27.9775 141 27.9775C140.737 27.9775 140.482 27.8735 140.293 27.6855ZM156 30.9775C156 31.5275 155.55 31.9775 155 31.9775H141C140.451 31.9775 140 31.5275 140 30.9775C140 30.4285 140.451 29.9775 141 29.9775H155C155.55 29.9775 156 30.4285 156 30.9775Z" fill="#22222C"/>
</svg>
